<?xml version="1.0" encoding="utf-8"?>
<!-- Generator: Adobe Illustrator 23.0.0, SVG Export Plug-In . SVG Version: 6.00 Build 0)  -->
<svg version="1.1" id="Capa_1" xmlns="http://www.w3.org/2000/svg" xmlns:xlink="http://www.w3.org/1999/xlink" x="0px" y="0px"
	 viewBox="0 0 510 510" style="enable-background:new 0 0 510 510;" xml:space="preserve">
<style type="text/css">
	.st0{fill:#0E1321;}
</style>
<g>
	<g id="notifications">
		<path class="st0" d="M394,407.6l69.8-121.7c39.3-68.6,24.6-150.5-30.7-202.8l8.9-15.5c10.1-17.7,3.5-42.1-14.1-52.2
			c-17.7-10.1-42.1-3.5-52.2,14.1L366.8,45c-73-21.3-151.2,7.3-190.5,75.9l-69.8,121.7l-69.6,18.9l-12.7,22.1l376,215.7l12.7-22.1
			L394,407.6z M234.9,492.7c24.3,14,55.7,5.5,69.6-18.9L216,423.1C202,447.4,210.5,478.8,234.9,492.7z"/>
	</g>
</g>
</svg>
