<?xml version="1.0" encoding="utf-8"?>
<!-- Generator: Adobe Illustrator 23.0.0, SVG Export Plug-In . SVG Version: 6.00 Build 0)  -->
<svg version="1.1" id="Capa_1" xmlns="http://www.w3.org/2000/svg" xmlns:xlink="http://www.w3.org/1999/xlink" x="0px" y="0px"
	 viewBox="0 0 510 510" style="enable-background:new 0 0 510 510;" xml:space="preserve">
<style type="text/css">
	.st0{fill:none;stroke:#FFFFFF;stroke-width:14;stroke-miterlimit:10;}
</style>
<g>
	<g id="notifications">
		<path class="st0" d="M396,414.8c-1.3-4.6-0.6-9.5,1.8-13.7l66.1-115.2c37-64.6,26.1-141.1-21.6-193.5c-5.3-5.8-6.3-14.3-2.4-21.2
			l2.1-3.7c10.1-17.7,3.5-42.1-14.1-52.2c-17.7-10.1-42.1-3.5-52.2,14.1l-2.1,3.7c-3.9,6.8-11.8,10.3-19.4,8.6
			c-69.2-14.7-140.8,14.4-177.8,79.1l-66.1,115.2c-2.4,4.1-6.3,7.2-10.9,8.4l-55.2,15c-4.6,1.3-8.5,4.3-10.9,8.4l0,0
			c-5,8.6-2,19.7,6.7,24.6l344.7,197.8c8.6,5,19.6,2,24.6-6.7v0c2.4-4.2,3-9.1,1.8-13.7L396,414.8z M234.9,492.7
			c15.4,8.9,33.7,8.7,48.5,1.2c12.8-6.5,13.2-24.6,0.8-31.7l-47.9-27.4c-12.4-7.1-27.8,2.4-27,16.6
			C210.3,468,219.4,483.9,234.9,492.7z"/>
	</g>
</g>
</svg>
